<?xml version="1.0" encoding="utf-8"?>
<!-- Svg Vector Icons : http://www.onlinewebfonts.com/icon -->
<!DOCTYPE svg PUBLIC "-//W3C//DTD SVG 1.1//EN" "http://www.w3.org/Graphics/SVG/1.1/DTD/svg11.dtd">
<svg version="1.1" xmlns="http://www.w3.org/2000/svg" xmlns:xlink="http://www.w3.org/1999/xlink" x="0px" y="0px" viewBox="0 0 256 256" enable-background="new 0 0 256 256" xml:space="preserve">
<metadata> Svg Vector Icons : http://www.onlinewebfonts.com/icon </metadata>
<g><g><g><path fill="#000000" d="M94,9c-11.1,0.9-20.8,3.8-30.8,8.9C27.5,36.2,8.4,78,10.1,134c0.8,25.7,5,45.4,13.4,63.3c10.8,22.4,28.1,38.6,49.6,45.8c9,3.1,15,4,25.6,3.9c28.1-0.1,50-10.6,66.7-32.1l4.4-5.6l1.5,3.9c4.1,10.7,10.4,21.1,16.3,26.3c11.4,10.2,27.5,10,38.3-0.5c11.5-11.2,18.6-30.3,20-54.1c0.4-6.3,0.3-7.7-0.7-9.1c-2-3.1-4.5-3.9-11.8-3.6c-6.3,0.2-6.7,0.3-8.6,2.3c-1.9,1.8-2.1,2.6-2.7,8.2c-0.7,7.4-1.6,10.9-3.3,13.7c-2.3,3.9-8.4,5.4-12.5,3.3c-4.6-2.4-9.6-11.1-13.4-23.3c-3.1-10.3-3.3-9,1.9-29.7c6.6-26.5,28-121.8,28-124.6c0-1.7-0.5-2.9-2.1-4.3l-2.1-2.1h-21.2c-11.8,0-22,0.3-22.9,0.7c-0.9,0.3-2.1,1.3-2.7,2.1c-0.5,0.9-3,10.5-5.4,21.5c-2.4,11-4.5,20.4-4.7,21c-0.2,0.5-1.5-1.6-3.1-5c-9.3-20.6-20.7-34.4-34.1-41.1C116.3,10.9,103,8.2,94,9z M107.6,23.6c2.8,0.5,7.7,2.3,10.7,3.7c13.7,6.6,25.6,24.3,35.2,52.5c3.7,10.8,4.4,12.2,6.6,13.2c4,1.8,8.8-0.5,9.8-4.7c0.2-0.9,3.1-13.9,6.4-28.9c3.3-15,6.1-27.9,6.4-28.8c0.3-1.5,0.5-1.5,12.6-1.5c7.7,0,12.2,0.3,12.2,0.7c0,1.7-21.3,94.7-26.1,113.9l-5.5,21.8l1.6,6.5c7.3,30.4,19.5,44.6,36.2,42c5.6-0.9,9.5-2.7,12.8-5.7l2.4-2.2l-0.4,1.8c-0.8,3.3-7,15.1-10,18.8c-6.2,7.9-14.8,8.8-22,2.5c-6.3-5.5-12.3-17.7-16.7-33.9c-0.8-3.1-1.9-6.3-2.4-7.1c-1.9-2.9-6.6-3.7-9.4-1.5c-0.9,0.7-3.3,4.1-5.2,7.5c-14.6,25.5-33.8,37.8-60.6,38.9c-10.6,0.5-16.8-0.3-25.1-3.3c-6.9-2.5-9.7-3.9-15-7.4c-10.9-7.3-19.2-17-25.5-29.9c-8.8-18-12.8-37.7-12.8-64.3c0-14.6,0.8-23.1,3.2-35.3c4.2-21,12.2-37.1,24.5-49.6C67.4,27.3,88.7,19.7,107.6,23.6z"/><path fill="#000000" d="M93.3,30.1c-18.9,3.6-32.3,21.2-38.1,50c-6.1,30.5-5.8,78.2,0.9,104.2c5.9,23.3,17,36.9,33.3,41.1c11.3,2.9,23.9,0.7,32.9-5.9c14.2-10.3,24.6-30.5,32.2-62.3c1.3-5.5,3.5-13.9,4.7-18.7c1.3-4.9,2.3-9.6,2.3-10.6c0-2.3-9-29.6-13.6-41.2c-4.8-12.1-13-28.7-17.8-36C118.7,33.5,107.8,27.4,93.3,30.1z M105.8,44.6c4.9,2.5,11.1,9.9,17.4,21c6,10.4,15.8,34.5,21.8,53.4l2.8,8.9l-3.1,13c-7.7,31.6-12,44.1-19.3,55.3c-6.4,9.8-13.6,15.4-21.8,16.5c-17.7,2.5-28.9-8.8-35.1-35.2c-2.3-9.7-3.5-21.6-3.9-39.2c-1.1-48.2,6.7-80.2,22-90.8C93.1,43.1,100.6,41.9,105.8,44.6z"/></g></g></g>
</svg>